#!OML:ASF E:/inclinewalkrobotboard/Project1/Captureday1/Session1/subject1.ASF
:FULLY-SPECIFIED
:DEGREES
188
root 0 0 0 -0.5101857104086776 -3.0166008055845586 -0.19604793794956832
lowerback 11.215869217312857 0.6351645788406937 0.39986945970249477
upperback -1.9392159476731465 0.9282555475659576 0.49801523047083246
thorax -8.371787847481354 0.4321376574347522 0.11022054762160222
lowerneck -11.419543540560138 -0.6332241275812273 1.3455588336853581
upperneck 18.86014114156059 -0.25555691796412416 -3.8959594623788254
head 7.824605009884599 -0.31672068796291986 -1.5686478668140384
rclavicle -5.482926233530075E-16 -6.199476542279227E-16
rhumerus -0.5179051317106858 0.9141490987763028 -60.208141428059946
rradius 53.34578794120392
rwrist 17.45616709245911
rhand -27.244207730584083 -23.444643836617566
rfingers 7.125019999999925
rthumb -0.8374244266908253 -53.58120403747406
lclavicle -4.899814629875318E-16 -6.929924198174811E-16
lhumerus -1.2897132014559496 -6.926242491024321 60.48407956807135
lradius 52.64174063076966
lwrist -11.135144272544974
lhand -37.27172255382754 -31.22896847164359
lfingers 7.12501999999992
lthumb -10.374209618181402 -1.6753744813348455
rfemur -21.378347808799333 -0.3383415297415846 19.54862799289038
rtibia 50.60760033742587
rfoot -22.760325505516896 -13.849052055893166
rtoes -12.217609330966084
lfemur -23.132033218730733 1.548313470563981 -18.141596903419803
ltibia 50.12963069045678
lfoot -25.961992494179768 -3.65347377877609
ltoes -16.72329012254509
189
root 0 0 0 -0.5094519709825575 -3.016860223217057 -0.1953340226602185
lowerback 11.216155565467362 0.6352998795359313 0.39974098519284135
upperback -1.9401663433893401 0.928365893275126 0.49757701979068425
thorax -8.37299249908045 0.43217426458619046 0.1098109606665128
lowerneck -11.417509622590252 -0.6323932075865758 1.3467973874613208
upperneck 18.85998941997877 -0.2542780256379549 -3.89761168985578
head 7.8242179755659915 -0.3161569122619504 -1.5692613387928063
rclavicle -5.483428621315276E-16 -6.198535639338962E-16
rhumerus -0.5192717077763724 0.913229792416212 -60.20900853324707
rradius 53.34448669940464
rwrist 17.455468141687668
rhand -27.243712211990804 -23.442407119124802
rfingers 7.125019999999925
rthumb -0.8369437603984293 -53.57904185471209
lclavicle -4.900880972672673E-16 -6.929123567327651E-16
lhumerus -1.2971078359526622 -6.924432926262002 60.48926908568063
lradius 52.63595145720012
lwrist -11.131298681247795
lhand -37.26922798359262 -31.21595389716608
lfingers 7.12501999999992
lthumb -10.371847231122334 -1.6624095571820803
rfemur -21.3800964005439 -0.3395156871590008 19.547149732521
rtibia 50.61030217771601
rfoot -22.763748365616223 -13.850681029808918
rtoes -12.22112421569911
lfemur -23.13413875656273 1.5488028007834107 -18.141399951834142
ltibia 50.131816997972734
lfoot -25.96483267865187 -3.6534918906580196
ltoes -16.725098695288544
190
root 0 0 0 -0.5091370990690811 -3.0169493867441477 -0.19498585349195585
lowerback 11.216276786527548 0.6353464216768452 0.39965363136291776
upperback -1.9405781955486976 0.9283940508843928 0.49738556794788746
thorax -8.373497212830655 0.4321876795541008 0.10964898333068929
lowerneck -11.416628301810501 -0.6320275095672928 1.3473266790393748
upperneck 18.859918271268434 -0.25372006665713154 -3.8983222684623478
head 7.824047858509997 -0.31591106450873907 -1.569527591684229
rclavicle -5.483069256647746E-16 -6.197711824530337E-16
rhumerus -0.5261716887912602 0.9086927565028127 -60.21315318697976
rradius 53.338186613174166
rwrist 17.452278348727713
rhand -27.241400949903785 -23.43136819736351
rfingers 7.125019999999925
rthumb -0.8347824889833557 -53.56807167961759
lclavicle -4.902138025554518E-16 -6.928720154890466E-16
lhumerus -1.3046302547425483 -6.922637014754727 60.49457023818191
lradius 52.630168491656875
lwrist -11.127371698687654
lhand -37.26671793223015 -31.20284067116029
lfingers 7.12501999999992
lthumb -10.36944927839367 -1.6491724968445567
rfemur -21.382321214454656 -0.3408681818764605 19.545338227744008
rtibia 50.61324443684666
rfoot -22.767740599192443 -13.852627834856861
rtoes -12.225357344275352
lfemur -23.130871889156793 1.548003971391251 -18.141741646649756
ltibia 50.12778269136308
lfoot -25.96025234660383 -3.6532814073409905
ltoes -16.722079946251235
191
root 0 0 0 -0.5089285323484308 -3.0169932984466663 -0.19473350322330463
lowerback 11.216356296180384 0.6353682498799584 0.39957561064083524
upperback -1.94085250630192 0.9283994767342438 0.49725885819492344
thorax -8.373836911985807 0.4321945370178993 0.10955426838885313
lowerneck -11.416042219434823 -0.6317712936110133 1.3476891393805595
upperneck 18.85986571234756 -0.2533410811013457 -3.898794866749398
head 7.823930969766312 -0.31574901833608193 -1.5697084536380972
rclavicle -5.483408201967553E-16 -6.197152088237055E-16
rhumerus -0.5305484659817008 0.9058115231588744 -60.21577384129701
rradius 53.33417329892935
rwrist 17.450256363137505
rhand -27.239937474117593 -23.42438164997666
rfingers 7.125019999999925
rthumb -0.833410779335293 -53.56114468797074
lclavicle -4.902503415360614E-16 -6.928470021414676E-16
lhumerus -1.3081780837624368 -6.921786643279628 60.49707764468468
lradius 52.627417202591
lwrist -11.125516759134623
lhand -37.26552852363503 -31.196602027801603
lfingers 7.12501999999992
lthumb -10.368310829421876 -1.642893805544265
rfemur -21.385121358891627 -0.3425813925014545 19.54304585888864
rtibia 50.61698126967167
rfoot -22.772795913770153 -13.8550850636212
rtoes -12.230695681744706
lfemur -23.127138414199116 1.5470901506837054 -18.142129893186016
ltibia 50.12319777468084
lfoot -25.954993408418165 -3.653074675226691
ltoes -16.718642054129592
192
root 0 0 0 -0.5119272490297189 -3.0160215501356067 -0.19767008775517247
lowerback 11.215238700891739 0.6348702400038828 0.4001753731758353
upperback -1.9370499840313524 0.9279634381572424 0.49898025610042235
thorax -8.369005869250522 0.43205073975759845 0.11109599406203385
lowerneck -11.424132213057904 -0.6351637755194646 1.342694068272756
upperneck 18.860413122837794 -0.2584171675446536 -3.8922053365886415
head 7.825426100125447 -0.31797109171564863 -1.5672148905538308
rclavicle -5.486139278511899E-16 -6.203704618762069E-16
rhumerus -0.5211396027357953 0.9122879920788769 -60.20918915586689
rradius 53.343395085941694
rwrist 17.455249970596793
rhand -27.243519693688842 -23.441272656841328
rfingers 7.125019999999925
rthumb -0.837048340710969 -53.57879263383151
lclavicle -4.900870941402134E-16 -6.93699916263007E-16
lhumerus -1.2858979802581842 -6.927284050831429 60.48139434132962
lradius 52.64689915980679
lwrist -11.13747832647884
lhand -37.27367218759211 -31.235457795878588
lfingers 7.12501999999992
lthumb -10.375734057263774 -1.6840765138356133
rfemur -21.380418614099135 -0.3395467183529921 19.546986203047787
rtibia 50.61017694830662
rfoot -22.76389323884692 -13.850417078629341
rtoes -12.220881462110437
lfemur -23.118842919609833 1.5451244963305535 -18.14321392230501
ltibia 50.113558804556625
lfoot -25.943165281361857 -3.6528408432469854
ltoes -16.71165190070979
